<svg xmlns="http://www.w3.org/2000/svg" width="24" height="24" viewBox="0 0 24 24" fill="none">
  <path d="M8 3.9H14.2L18 7.7V19.1C18 20.149 17.149 21 16.1 21H8C6.895 21 6 20.105 6 19V5.9C6 4.795 6.895 3.9 8 3.9Z" stroke="#8B5CF6" stroke-width="1.8" stroke-linejoin="round"/>
  <path d="M14 3.9V7.1C14 7.597 14.403 8 14.9 8H18" stroke="#8B5CF6" stroke-width="1.8" stroke-linejoin="round"/>
  <circle cx="11.2" cy="14.3" r="1.8" stroke="#8B5CF6" stroke-width="1.8"/>
  <path d="M11.2 10.8V9.9" stroke="#8B5CF6" stroke-width="1.8" stroke-linecap="round"/>
  <path d="M11.2 18.7V17.8" stroke="#8B5CF6" stroke-width="1.8" stroke-linecap="round"/>
  <path d="M14.7 14.3H15.6" stroke="#8B5CF6" stroke-width="1.8" stroke-linecap="round"/>
  <path d="M6.8 14.3H7.7" stroke="#8B5CF6" stroke-width="1.8" stroke-linecap="round"/>
  <path d="M13.7 11.8L14.3 11.2" stroke="#8B5CF6" stroke-width="1.8" stroke-linecap="round"/>
  <path d="M8.1 17.4L8.7 16.8" stroke="#8B5CF6" stroke-width="1.8" stroke-linecap="round"/>
  <path d="M13.7 16.8L14.3 17.4" stroke="#8B5CF6" stroke-width="1.8" stroke-linecap="round"/>
  <path d="M8.1 11.2L8.7 11.8" stroke="#8B5CF6" stroke-width="1.8" stroke-linecap="round"/>
</svg>
